<svg width="135" height="24" viewBox="0 0 135 24" fill="none" xmlns="http://www.w3.org/2000/svg">
<g opacity="0.7">
<path fill-rule="evenodd" clip-rule="evenodd" d="M2 12C2 6.48 6.48 2 12 2C17.52 2 22 6.48 22 12C22 17.52 17.52 22 12 22C6.48 22 2 17.52 2 12ZM16 12L10 7.5V16.5L16 12Z" fill="#E3E2E6"/>
<path d="M34.424 17.14C33.976 17.14 33.57 17.0793 33.206 16.958C32.842 16.8367 32.52 16.6827 32.24 16.496C31.96 16.3 31.722 16.09 31.526 15.866C31.3393 15.6327 31.1853 15.4087 31.064 15.194L32.198 14.032C32.3473 14.256 32.5013 14.4613 32.66 14.648C32.8187 14.8253 32.9773 14.9747 33.136 15.096C33.304 15.208 33.486 15.2967 33.682 15.362C33.8873 15.4273 34.102 15.46 34.326 15.46C34.7087 15.46 35.04 15.376 35.32 15.208C35.6093 15.0307 35.8287 14.7927 35.978 14.494C36.1367 14.1953 36.216 13.864 36.216 13.5V8.88H34.158V7.2H39.66V8.88H38.008V13.682C38.008 14.158 37.924 14.606 37.756 15.026C37.588 15.4367 37.3453 15.8053 37.028 16.132C36.72 16.4493 36.342 16.6967 35.894 16.874C35.4553 17.0513 34.9653 17.14 34.424 17.14ZM42.2373 17V7.2H49.4333V8.852H44.0293V15.348H49.4893V17H42.2373ZM43.1333 12.8V11.176H48.7193V12.8H43.1333ZM54.9636 17V8.88H51.7716V7.2H60.0596V8.88H56.7836V17H54.9636ZM71.5241 17.14C70.8801 17.14 70.2874 17.07 69.7461 16.93C69.2141 16.7807 68.7334 16.566 68.3041 16.286C67.8841 16.006 67.4968 15.6653 67.1421 15.264L68.2621 13.864C68.8034 14.4893 69.3401 14.928 69.8721 15.18C70.4041 15.432 70.9874 15.558 71.6221 15.558C71.9861 15.558 72.3268 15.5113 72.6441 15.418C72.9614 15.3247 73.2181 15.1847 73.4141 14.998C73.6101 14.802 73.7081 14.5687 73.7081 14.298C73.7081 14.1207 73.6614 13.9667 73.5681 13.836C73.4748 13.696 73.3441 13.5793 73.1761 13.486C73.0174 13.3833 72.8261 13.2947 72.6021 13.22C72.3874 13.1453 72.1588 13.0847 71.9161 13.038C71.6734 12.982 71.4214 12.9353 71.1601 12.898C70.6001 12.8047 70.1008 12.6787 69.6621 12.52C69.2234 12.3613 68.8548 12.1607 68.5561 11.918C68.2574 11.666 68.0288 11.3767 67.8701 11.05C67.7208 10.7233 67.6461 10.3453 67.6461 9.916C67.6461 9.48667 67.7441 9.09467 67.9401 8.74C68.1454 8.38533 68.4254 8.082 68.7801 7.83C69.1441 7.578 69.5594 7.382 70.0261 7.242C70.5021 7.102 71.0108 7.032 71.5521 7.032C72.1588 7.032 72.7001 7.09733 73.1761 7.228C73.6614 7.35867 74.0861 7.55 74.4501 7.802C74.8141 8.054 75.1221 8.35267 75.3741 8.698L74.2261 9.93C74.0021 9.64067 73.7501 9.40267 73.4701 9.216C73.1901 9.02 72.8821 8.87533 72.5461 8.782C72.2194 8.67933 71.8788 8.628 71.5241 8.628C71.1321 8.628 70.7868 8.67467 70.4881 8.768C70.1988 8.86133 69.9654 8.99667 69.7881 9.174C69.6201 9.35133 69.5361 9.566 69.5361 9.818C69.5361 10.014 69.5874 10.1867 69.6901 10.336C69.8021 10.4853 69.9561 10.616 70.1521 10.728C70.3574 10.84 70.6001 10.9333 70.8801 11.008C71.1694 11.0827 71.4868 11.148 71.8321 11.204C72.3641 11.2973 72.8588 11.414 73.3161 11.554C73.7734 11.694 74.1701 11.8713 74.5061 12.086C74.8514 12.3007 75.1174 12.5667 75.3041 12.884C75.4908 13.192 75.5841 13.5653 75.5841 14.004C75.5841 14.648 75.4114 15.208 75.0661 15.684C74.7301 16.1507 74.2588 16.51 73.6521 16.762C73.0454 17.014 72.3361 17.14 71.5241 17.14ZM80.7215 17V8.88H77.5295V7.2H85.8175V8.88H82.5415V17H80.7215ZM88.4483 17V7.2H93.2923C93.8989 7.2 94.4496 7.33533 94.9443 7.606C95.4389 7.87667 95.8263 8.24533 96.1063 8.712C96.3956 9.17867 96.5403 9.706 96.5403 10.294C96.5403 10.8727 96.3909 11.4 96.0923 11.876C95.7936 12.352 95.3923 12.73 94.8882 13.01C94.3843 13.29 93.8243 13.43 93.2083 13.43H90.2263V17H88.4483ZM94.8323 17L92.0043 12.576L93.9083 12.226L97.0163 17.014L94.8323 17ZM90.2263 11.848H93.1523C93.4416 11.848 93.6983 11.7827 93.9223 11.652C94.1556 11.512 94.3376 11.33 94.4683 11.106C94.6083 10.8727 94.6783 10.616 94.6783 10.336C94.6783 10.0467 94.6036 9.79 94.4543 9.566C94.3049 9.342 94.0996 9.16467 93.8383 9.034C93.5769 8.90333 93.2783 8.838 92.9423 8.838H90.2263V11.848ZM99.9736 17V7.2H107.17V8.852H101.766V15.348H107.226V17H99.9736ZM100.87 12.8V11.176H106.456V12.8H100.87ZM109.27 17L113.484 7.2H115.29L119.476 17H117.558L115.038 11.092C114.982 10.9427 114.912 10.7607 114.828 10.546C114.753 10.3313 114.669 10.1073 114.576 9.874C114.492 9.63133 114.408 9.40267 114.324 9.188C114.249 8.964 114.189 8.77733 114.142 8.628L114.548 8.614C114.492 8.81 114.422 9.02 114.338 9.244C114.263 9.45867 114.184 9.678 114.1 9.902C114.016 10.1167 113.932 10.3313 113.848 10.546C113.764 10.7513 113.689 10.9473 113.624 11.134L111.104 17H109.27ZM111.16 14.816L111.818 13.234H116.816L117.334 14.816H111.16ZM121.876 17V7.2H123.598L127.518 12.898L126.58 12.884L130.542 7.2H132.208V17H130.402V13.262C130.402 12.45 130.421 11.708 130.458 11.036C130.505 10.3547 130.579 9.67333 130.682 8.992L130.892 9.622L127.476 14.34H126.552L123.206 9.636L123.402 8.992C123.505 9.65467 123.575 10.322 123.612 10.994C123.659 11.6567 123.682 12.4127 123.682 13.262V17H121.876Z" fill="#E3E2E6"/>
</g>
</svg>
