<svg xmlns="http://www.w3.org/2000/svg" width="40" height="40"><path d="M20 0C9 0 0 8.9 0 20c0 11 8.9 20 20 20 11 0 20-8.9 20-20A19.93 19.93 0 0 0 20 0z" fill="#fff"/><path d="M27.7 20.1c0-.7-.1-1.1-.2-1.6H20v3h4.4c-.1.7-.6 1.8-1.6 2.6v.1l2.4 1.8h.2c1.4-1.4 2.3-3.5 2.3-5.9" fill="#557ebf"/><path d="M20 27.9c2.1 0 4-.7 5.3-1.9l-2.5-2c-.7.5-1.6.8-2.8.8-2.1 0-3.9-1.4-4.5-3.3h-.1l-2.5 1.9v.1c1.4 2.7 4.1 4.4 7.1 4.4" fill="#36a852"/><path d="M15.5 21.5c-.2-.5-.3-1-.3-1.6a4.53 4.53 0 0 1 .3-1.6v-.1L13 16.3h-.1c-.6 1.1-.8 2.3-.8 3.6s.3 2.5.8 3.6l2.6-2" fill="#f9bc15"/><path d="M20 15c1.5 0 2.5.6 3.1 1.2l2.2-2.2c-1.3-1.2-3.1-2-5.3-2-3 0-5.8 1.7-7.1 4.4l2.6 2c.6-2 2.4-3.4 4.5-3.4" fill="#eb4435"/></svg>
