<svg width="40" height="40" viewBox="0 0 40 40" fill="none" xmlns="http://www.w3.org/2000/svg">
<circle cx="20" cy="20" r="20" fill="white"/>
<path d="M20.2227 12.3846C21.0547 12.3846 22.0977 11.8048 22.7188 11.0318C23.2812 10.3312 23.6914 9.35283 23.6914 8.37444C23.6914 8.24158 23.6797 8.10871 23.6562 8C22.7305 8.03624 21.6172 8.64018 20.9492 9.44946C20.4219 10.0655 19.9414 11.0318 19.9414 12.0223C19.9414 12.1672 19.9648 12.3121 19.9766 12.3605C20.0352 12.3725 20.1289 12.3846 20.2227 12.3846ZM17.293 27C18.4297 27 18.9336 26.2149 20.3516 26.2149C21.793 26.2149 22.1094 26.9758 23.375 26.9758C24.6172 26.9758 25.4492 25.7921 26.2344 24.6325C27.1133 23.3039 27.4766 21.9994 27.5 21.939C27.418 21.9148 25.0391 20.9123 25.0391 18.0979C25.0391 15.658 26.9141 14.5588 27.0195 14.4743C25.7773 12.6383 23.8906 12.59 23.375 12.59C21.9805 12.59 20.8438 13.4596 20.1289 13.4596C19.3555 13.4596 18.3359 12.6383 17.1289 12.6383C14.832 12.6383 12.5 14.595 12.5 18.2912C12.5 20.5861 13.3672 23.014 14.4336 24.5842C15.3477 25.9129 16.1445 27 17.293 27Z" fill="black"/>
</svg>
